<svg id="layer" xmlns="http://www.w3.org/2000/svg" viewBox="0 0 166.99 70.24"><defs><style>.cls-1{fill:#fff;}</style></defs><path id="logo" class="cls-1" d="M182.45,79.11s-6.31-14.65-32.84-14.4c-26.52-.25-32.84,14.4-32.84,14.4-33.25-9.53-45,3.74-49.12,13a18.88,18.88,0,0,0,0,15.37c4.1,9.28,15.87,22.56,49.12,13,0,0,6.32,14.65,32.84,14.4,26.53.25,32.84-14.4,32.84-14.4,30.19,8.65,42.67-1.49,47.79-10.38a20.68,20.68,0,0,0,0-20.67C225.12,80.6,212.64,70.46,182.45,79.11Z" transform="translate(-66.02 -64.71)"/></svg>